<?xml version="1.0" encoding="UTF-8"?>
<svg xmlns="http://www.w3.org/2000/svg" viewBox="0 0 376 175" width="376" height="175">
<path d="M134.94 102.59C135.09 96.56 135.24 90.53 135.39 84.5C138.43 84.25 141.46 84 144.5 83.75C144.67 80.92 144.83 78.08 145 75.25C141.92 75 138.83 74.75 135.75 74.5C134.24 72.55 134.78 67.85 135.25 65.5C138.42 65.33 141.58 65.17 144.75 65C144.83 61.92 144.92 58.83 145 55.75C154.33 55.75 163.67 55.75 173 55.75C173.25 58.67 173.5 61.58 173.75 64.5C176.75 64.67 179.75 64.83 182.75 65C182.83 77.58 182.92 90.17 183 102.75C186.17 102.75 189.33 102.75 192.5 102.75C192.67 83.92 192.83 65.08 193 46.25C196 46.25 199 46.25 202 46.25C202.17 49.25 202.33 52.25 202.5 55.25C208.67 55.42 214.83 55.58 221 55.75C221.25 58.67 221.5 61.58 221.75 64.5C224.75 64.67 227.75 64.83 230.75 65C231 62.08 231.25 59.17 231.5 56.25C233.37 54.79 236.92 55.5 239.25 55.5C242.99 55.5 247.06 56.02 250.67 55.89C253.57 55.78 256.54 55.16 259.5 55.75C259.67 58.75 259.83 61.75 260 64.75C263 64.92 266 65.08 269 65.25C269.25 77.67 269.5 90.08 269.75 102.5C272.81 102.55 275.88 102.6 278.94 102.64C279.09 87.19 279.24 71.74 279.39 56.29C281.45 54.57 286.15 55.5 288.75 55.5C295.39 55.5 301.61 55.5 308.25 55.5C310.99 55.5 314.81 54.84 317.25 56C317.5 58.92 317.75 61.83 318 64.75C321 64.92 324 65.08 327 65.25C326.92 77.83 326.83 90.42 326.75 103C323.75 103.17 320.75 103.33 317.75 103.5C317.5 106.53 317.25 109.56 317 112.59C311.12 112.76 305.23 112.92 299.35 113.08C298.82 113.22 298.28 113.36 297.75 113.5C298.99 117.22 299.43 128.9 298 132.75C295.08 132.83 292.17 132.92 289.25 133C289.08 135.83 288.92 138.67 288.75 141.5C285.63 141.54 282.51 141.58 279.39 141.62C279.39 132.51 279.39 123.4 279.39 114.29C279.59 113.94 279.8 113.6 280 113.25C279.54 113.19 279.08 113.12 278.63 113.06C272.59 112.79 266.54 112.52 260.5 112.25C260.31 109.5 260.12 106.75 259.94 104C259.21 101.8 252.88 103.52 250.75 102.5C250.58 93.33 250.42 84.17 250.25 75C247.17 75.03 244.08 75.05 241 75.08C240.84 87.55 240.67 100.03 240.51 112.51C234.34 112.54 228.17 112.57 222 112.6C221.75 100.06 221.5 87.53 221.25 75C218.17 75.08 215.08 75.17 212 75.25C211.98 87.67 211.95 100.1 211.93 112.52C202.62 112.55 193.31 112.58 184 112.61C183.83 112.61 183.67 112.61 183.5 112.62C174 112.62 164.5 112.61 155 112.61C151.67 112.66 148.33 112.7 145 112.75C144.83 109.58 144.67 106.42 144.5 103.25C141.42 103.33 138.33 103.42 135.25 103.5C135.04 106.54 134.84 109.57 134.63 112.61C125.25 112.61 115.88 112.61 106.5 112.62C103.42 112.58 100.33 112.54 97.25 112.5C97 109.42 96.75 106.33 96.5 103.25C93.33 103.25 90.17 103.25 87 103.25C86.98 106.34 86.95 109.43 86.93 112.52C77.62 112.56 68.31 112.59 59 112.62C58.67 112.62 58.33 112.62 58 112.62C51.83 112.58 45.65 112.55 39.48 112.51C39.45 106.44 39.42 100.36 39.39 94.29C41.31 92.69 46.17 93.28 48.5 93.75C48.69 96.83 48.88 99.92 49.07 103C55.36 103 61.65 103 67.94 103C67.87 100 67.81 97 67.75 94C64.75 93.83 61.75 93.67 58.75 93.5C58.58 90.33 58.42 87.17 58.25 84C55.17 83.92 52.08 83.83 49 83.75C49.08 77.5 49.17 71.25 49.25 65C52.33 64.92 55.42 64.83 58.5 64.75C58.67 61.75 58.83 58.75 59 55.75C71.58 55.5 84.17 55.25 96.75 55C96.92 52 97.08 49 97.25 46C100.33 45.92 103.42 45.83 106.5 45.75C106.67 36.42 106.83 27.08 107 17.75C109.92 17.83 112.83 17.92 115.75 18C115.92 21 116.08 24 116.25 27C119.25 27.17 122.25 27.33 125.25 27.5C125.5 33.58 125.75 39.67 126 45.75C129 45.92 132 46.08 135 46.25C134.83 49.42 134.67 52.58 134.5 55.75C131.58 56 128.67 56.25 125.75 56.5C125.83 71.92 125.92 87.33 126 102.75C128.98 102.7 131.96 102.64 134.94 102.59ZM97.07 56.37C96.91 62.41 96.75 68.46 96.6 74.5C93.48 74.67 90.37 74.83 87.25 75C87.17 77.92 87.08 80.83 87 83.75C90.2 84 93.4 84.25 96.6 84.5C96.75 90.54 96.91 96.58 97.07 102.62C100.13 102.75 103.19 102.87 106.25 103C106.33 87.42 106.42 71.83 106.5 56.25C103.36 56.29 100.21 56.33 97.07 56.37ZM86.98 65.04C83.85 65.04 80.71 65.04 77.58 65.04C77.58 68.18 77.58 71.32 77.58 74.46C80.71 74.46 83.85 74.46 86.98 74.46C86.98 71.32 86.98 68.18 86.98 65.04ZM163.96 65.02C157.65 65.02 151.35 65.02 145.04 65.02C145.04 68.17 145.04 71.33 145.04 74.48C151.35 74.48 157.65 74.48 163.96 74.48C163.96 71.33 163.96 68.17 163.96 65.02ZM307.78 92.93C308.79 91.91 308.97 76.5 308 75.06C304.92 75.04 301.83 75.02 298.75 75C298.67 81.08 298.58 87.17 298.5 93.25C301.59 93.14 304.69 93.04 307.78 92.93ZM164 102.94C164.92 101.58 164.89 86.36 163.94 85C163.29 83.06 156.84 84 154.75 84C154.67 90.25 154.58 96.5 154.5 102.75C157.67 102.81 160.83 102.88 164 102.94Z" fill="#ffffff" fill-rule="evenodd" stroke="#ffffff" stroke-width="0.25" stroke-linejoin="round"/>
</svg>