<?xml version="1.0" encoding="UTF-8"?>
<svg xmlns="http://www.w3.org/2000/svg" viewBox="0 0 376 175" width="376" height="175">
<path d="M116.05 17.63C116.05 20.76 116.05 23.89 116.05 27.03C119.25 27.03 122.45 27.03 125.65 27.03C125.65 33.36 125.65 39.69 125.65 46.02C128.77 46.02 131.89 46.02 135.01 46.02C135.01 49.3 135.01 52.57 135.01 55.85C131.9 55.85 128.78 55.85 125.66 55.85C125.66 71.56 125.66 87.27 125.66 102.98C128.83 102.98 132 102.98 135.18 102.98C135.18 96.66 135.18 90.34 135.18 84.02C138.38 84.02 141.59 84.02 144.8 84.02C144.8 80.96 144.8 77.91 144.8 74.85C141.61 74.85 138.42 74.85 135.24 74.85C135.24 71.57 135.24 68.3 135.24 65.02C138.44 65.02 141.65 65.02 144.86 65.02C144.86 61.81 144.86 58.6 144.86 55.39C154.45 55.39 164.04 55.39 173.64 55.39C173.64 58.6 173.64 61.81 173.64 65.02C176.78 65.02 179.92 65.02 183.06 65.02C183.06 77.67 183.06 90.33 183.06 102.99C186.31 102.99 189.57 102.99 192.83 102.99C192.83 84.01 192.83 65.03 192.83 46.06C195.87 46.06 198.92 46.06 201.97 46.06C202.23 49.23 202.49 52.4 202.75 55.58C209.05 55.58 215.34 55.58 221.64 55.58C221.64 58.71 221.64 61.84 221.64 64.97C224.81 64.97 227.98 64.97 231.16 64.97C231.16 62.07 231.16 59.16 231.16 56.25C233.72 54.9 237.38 55.58 240.25 55.58C246.54 55.59 253.91 54.55 260.05 55.85C260.05 58.91 260.05 61.97 260.05 65.03C263.25 65.03 266.45 65.03 269.65 65.03C269.65 77.68 269.65 90.33 269.65 102.97C272.82 102.97 275.99 102.97 279.16 102.97C279.16 87.4 279.16 71.82 279.16 56.25C281.94 54.79 286.13 55.59 289.25 55.57C296.94 55.54 310.72 54.11 317.64 55.98C317.64 58.99 317.64 62.01 317.64 65.02C320.77 65.02 323.91 65.02 327.05 65.02C327.05 77.69 327.05 90.35 327.05 103.02C323.91 103.02 320.78 103.02 317.65 103.02C317.65 106.34 317.65 109.66 317.65 112.97C311.17 112.97 304.69 112.97 298.22 112.97C298.22 119.64 298.22 126.32 298.22 132.99C295.11 132.99 292.01 132.99 288.91 132.99C288.91 135.98 288.91 138.98 288.91 141.98C285.67 141.98 282.44 141.98 279.21 141.98C279.21 132.29 279.21 122.6 279.21 112.91C272.8 112.91 266.4 112.91 260 112.91C260 109.62 260 106.32 260 103.03C256.82 103.03 253.65 103.03 250.48 103.03C250.48 93.69 250.48 84.36 250.48 75.02C247.29 75.02 244.1 75.02 240.91 75.02C240.91 87.67 240.91 100.31 240.91 112.95C234.44 112.95 227.96 112.95 221.49 112.95C221.49 100.31 221.49 87.67 221.49 75.02C218.34 75.02 215.2 75.02 212.06 75.02C212.06 87.66 212.06 100.29 212.06 112.92C189.65 112.92 167.23 112.92 144.82 112.92C144.82 109.63 144.82 106.33 144.82 103.04C141.56 103.04 138.3 103.04 135.04 103.04C135.04 106.32 135.04 109.61 135.04 112.89C122.31 112.89 109.58 112.89 96.86 112.89C96.86 109.61 96.86 106.33 96.86 103.06C93.59 103.06 90.32 103.06 87.06 103.06C87.06 106.34 87.06 109.62 87.06 112.9C71.1 112.9 55.14 112.9 39.18 112.9C39.18 106.69 39.18 100.47 39.18 94.25C41.58 92.96 46.39 93.08 48.91 94.1C48.91 97.07 48.91 100.04 48.91 103.01C55.26 103.01 61.6 103.01 67.95 103.01C67.95 100 67.95 96.99 67.95 93.97C64.8 93.97 61.66 93.97 58.51 93.97C58.51 90.66 58.51 87.34 58.51 84.03C55.29 84.03 52.07 84.03 48.84 84.03C48.84 77.69 48.84 71.36 48.84 65.02C52.06 65.02 55.27 65.02 58.49 65.02C58.49 62.06 58.49 59.09 58.49 56.12C71.27 55.83 84.05 55.54 96.83 55.25C96.83 52.17 96.83 49.1 96.83 46.02C100.05 46.02 103.26 46.02 106.48 46.02C106.48 36.56 106.48 27.1 106.48 17.63C109.67 17.63 112.86 17.63 116.05 17.63ZM96.91 55.87C96.91 62.23 96.91 68.6 96.91 74.96C93.64 74.96 90.36 74.96 87.09 74.96C87.09 77.98 87.09 81.01 87.09 84.03C90.36 84.03 93.63 84.03 96.9 84.03C96.9 90.35 96.9 96.67 96.9 102.98C100.09 102.98 103.28 102.98 106.47 102.98C106.47 87.28 106.47 71.58 106.47 55.87C103.29 55.87 100.1 55.87 96.91 55.87ZM87.1 65.07C83.97 65.07 80.84 65.07 77.71 65.07C77.71 68.22 77.71 71.37 77.71 74.52C80.84 74.52 83.97 74.52 87.1 74.52C87.1 71.37 87.1 68.22 87.1 65.07ZM163.96 65.04C157.62 65.04 151.28 65.04 144.95 65.04C144.95 68.16 144.95 71.28 144.95 74.4C151.28 74.4 157.62 74.4 163.96 74.4C163.96 71.28 163.96 68.16 163.96 65.04ZM307.97 75.02C304.75 75.02 301.53 75.02 298.31 75.02C298.31 81.18 298.31 87.35 298.31 93.52C301.53 93.52 304.75 93.52 307.97 93.52C307.97 87.35 307.97 81.18 307.97 75.02ZM163.98 84.07C160.75 84.07 157.52 84.07 154.3 84.07C154.3 90.37 154.3 96.68 154.3 102.99C157.52 102.99 160.75 102.99 163.98 102.99C163.98 96.68 163.98 90.37 163.98 84.07Z" fill="#020202" fill-rule="evenodd" stroke="#020202" stroke-width="0.25" stroke-linejoin="round"/>
</svg>